<?xml version="1.0" standalone="no"?>
<!DOCTYPE svg PUBLIC "-//W3C//DTD SVG 20010904//EN"
 "http://www.w3.org/TR/2001/REC-SVG-20010904/DTD/svg10.dtd">
<svg version="1.0" xmlns="http://www.w3.org/2000/svg"
 width="50px" height="50px" viewBox="0 0 650.000000 520.000000"
 preserveAspectRatio="xMidYMid meet">
<metadata>
Created by potrace 1.16, written by Peter Selinger 2001-2019
</metadata>
<g transform="translate(0.000000,520.000000) scale(0.100000,-0.100000)"
fill="#000000" stroke="none">
<path d="M4951 4135 c-30 -7 -92 -32 -138 -56 -218 -110 -353 -339 -353 -593
1 -276 180 -529 441 -623 64 -23 90 -26 199 -27 106 -1 136 3 195 22 288 96
468 361 452 666 -12 244 -139 447 -347 556 -43 22 -106 46 -141 55 -77 18
-234 18 -308 0z"/>
<path d="M1330 4124 c-104 -27 -199 -83 -286 -169 -68 -67 -89 -95 -127 -175
-54 -113 -70 -183 -70 -305 1 -259 149 -490 382 -597 241 -111 520 -59 712
133 63 62 85 93 122 170 58 120 72 181 71 304 -1 206 -82 381 -238 513 -61 52
-190 116 -264 131 -73 15 -236 13 -302 -5z"/>
<path d="M3182 4005 c-112 -25 -207 -79 -303 -175 -70 -70 -94 -102 -127 -170
-187 -389 15 -839 423 -945 69 -18 211 -20 287 -4 29 6 94 30 144 55 155 74
270 206 331 376 37 106 43 263 15 375 -90 354 -420 564 -770 488z"/>
<path d="M4490 2899 c-99 -53 -180 -109 -242 -167 l-36 -34 67 -67 c181 -182
290 -401 320 -646 6 -49 11 -183 11 -297 l0 -208 846 0 846 0 -5 333 c-3 300
-6 340 -26 416 -45 176 -146 346 -285 479 -95 91 -168 143 -284 201 l-82 41
-68 -51 c-273 -211 -641 -208 -902 6 -30 25 -57 45 -60 45 -3 0 -48 -23 -100
-51z"/>
<path d="M889 2897 c-278 -139 -479 -377 -560 -662 -21 -75 -23 -104 -27 -422
l-3 -343 869 0 869 0 6 253 c5 271 17 360 64 490 54 152 120 258 232 379 l71
76 -57 52 c-74 68 -186 143 -279 187 l-74 35 -44 -38 c-66 -58 -146 -103 -244
-137 -78 -27 -100 -30 -212 -31 -91 0 -142 4 -189 17 -90 26 -201 82 -271 139
-33 26 -61 48 -63 48 -2 0 -41 -19 -88 -43z"/>
<path d="M2739 2781 c-297 -146 -503 -393 -580 -693 -19 -74 -22 -119 -26
-410 l-5 -328 1197 0 1197 0 -4 333 c-5 369 -12 419 -83 574 -103 224 -309
429 -537 532 l-62 29 -42 -37 c-164 -144 -422 -206 -635 -152 -103 26 -206 76
-285 141 l-61 48 -74 -37z"/>
</g>
</svg>
