<?xml version="1.0" standalone="no"?>
<!DOCTYPE svg PUBLIC "-//W3C//DTD SVG 20010904//EN"
 "http://www.w3.org/TR/2001/REC-SVG-20010904/DTD/svg10.dtd">
<svg version="1.0" xmlns="http://www.w3.org/2000/svg"
 width="50px" height="50px" viewBox="0 0 1200.000000 960.000000"
 preserveAspectRatio="xMidYMid meet">
<metadata>
Created by potrace 1.16, written by Peter Selinger 2001-2019
</metadata>
<g transform="translate(0.000000,960.000000) scale(0.100000,-0.100000)"
fill="#FF0000" stroke="none">
<path d="M4500 9524 c-227 -59 -432 -262 -548 -542 -79 -189 -112 -377 -112
-629 l0 -153 -503 0 c-545 0 -561 -1 -669 -56 -117 -59 -231 -215 -260 -355
l-12 -59 -215 -2 -216 -3 -3 -252 -2 -253 4110 0 4110 0 0 255 0 255 -285 0
-285 0 -6 28 c-19 84 -29 113 -61 174 -38 73 -129 168 -203 211 -95 55 -118
57 -691 57 l-526 0 -6 193 c-9 292 -45 456 -147 662 -122 248 -307 417 -515
470 -87 22 -2870 22 -2955 -1z m2918 -680 c58 -29 123 -96 157 -164 45 -90 57
-148 62 -317 l6 -163 -1662 0 -1661 0 0 138 c0 79 6 165 14 204 30 139 112
258 211 304 l50 24 1386 0 1385 0 52 -26z"/>
<path d="M1967 6903 c-4 -3 -7 -69 -7 -145 0 -114 3 -140 15 -144 12 -5 15
-28 15 -120 l0 -114 195 0 c107 0 195 -2 195 -4 0 -2 36 -235 80 -518 45 -282
92 -584 105 -670 14 -87 36 -229 50 -315 13 -87 35 -230 49 -318 14 -88 122
-781 241 -1540 204 -1300 284 -1812 340 -2175 13 -85 45 -285 70 -444 25 -158
45 -290 45 -292 0 -2 1204 -4 2675 -4 l2675 0 5 23 c2 12 65 393 140 847 74
454 166 1019 205 1255 39 237 104 633 145 880 40 248 151 920 245 1495 280
1704 290 1765 290 1773 0 4 99 7 220 7 l220 0 0 265 0 265 -4103 0 c-2257 0
-4107 -3 -4110 -7z m2674 -713 c138 -52 247 -194 280 -364 5 -29 9 -929 9
-2250 0 -2427 4 -2264 -63 -2390 -45 -85 -122 -160 -204 -199 -64 -30 -75 -32
-178 -32 -106 0 -114 2 -180 34 -86 42 -163 120 -205 205 -63 128 -60 -10 -60
2381 0 1447 4 2202 10 2245 15 89 68 199 130 264 55 58 145 112 212 126 64 13
187 4 249 -20z m1500 20 c162 -31 302 -174 344 -351 13 -56 15 -338 15 -2270
0 -1451 -3 -2225 -10 -2260 -15 -79 -72 -191 -126 -249 -31 -33 -74 -64 -123
-88 -73 -36 -78 -37 -186 -37 -92 0 -118 4 -158 23 -119 54 -212 159 -259 292
l-23 65 0 2240 c0 2146 1 2242 18 2300 27 87 60 146 116 207 101 110 242 156
392 128z m1696 -29 c127 -60 227 -191 258 -338 22 -104 22 -4414 0 -4518 -32
-153 -121 -273 -250 -336 -66 -32 -75 -34 -180 -34 -99 0 -116 3 -169 28 -120
56 -201 149 -248 285 l-23 67 0 2250 0 2250 23 66 c72 210 239 327 446 314 60
-3 95 -12 143 -34z"/>
</g>
</svg>
