<?xml version="1.0" standalone="no"?>
<!DOCTYPE svg PUBLIC "-//W3C//DTD SVG 20010904//EN"
 "http://www.w3.org/TR/2001/REC-SVG-20010904/DTD/svg10.dtd">
<svg version="1.0" xmlns="http://www.w3.org/2000/svg"
 width="35px" height="35px" viewBox="0 0 368.000000 369.000000"
 preserveAspectRatio="xMidYMid meet">
<metadata>
Created by potrace 1.16, written by Peter Selinger 2001-2019
</metadata>
<g transform="translate(0.000000,369.000000) scale(0.100000,-0.100000)"
fill="#000000" stroke="none">
<path d="M2930 3674 c-19 -8 -99 -79 -177 -157 l-143 -142 382 -382 383 -383
123 123 c170 168 182 185 182 262 0 53 -4 68 -29 101 -57 77 -555 563 -593
579 -46 19 -83 19 -128 -1z"/>
<path d="M1535 2300 l-1020 -1020 383 -382 382 -383 1022 1022 1023 1023 -380
380 c-209 209 -382 380 -385 380 -3 0 -464 -459 -1025 -1020z m1162 398 c101
-101 183 -190 183 -198 0 -16 -1528 -1550 -1544 -1550 -12 0 -364 348 -378
374 -9 16 86 115 758 787 423 423 776 769 784 769 8 0 97 -82 197 -182z"/>
<path d="M1772 2067 l-732 -732 148 -148 147 -147 728 728 c400 400 727 732
727 737 0 6 -64 74 -143 153 l-142 142 -733 -733z"/>
<path d="M410 1048 c-35 -90 -87 -222 -116 -294 l-51 -132 191 -190 191 -190
290 116 c160 63 292 117 295 119 4 4 -721 733 -730 733 -3 0 -34 -73 -70 -162z"/>
<path d="M201 518 c-5 -13 -52 -133 -105 -267 -53 -134 -95 -246 -93 -248 5
-4 519 197 532 209 9 8 -300 328 -318 328 -4 0 -11 -10 -16 -22z"/>
</g>
</svg>
