<!DOCTYPE svg PUBLIC "-//W3C//DTD SVG 20010904//EN" "http://www.w3.org/TR/2001/REC-SVG-20010904/DTD/svg10.dtd">
<svg version="1.0" xmlns="http://www.w3.org/2000/svg" width="50px" height="50px" viewBox="0 0 2900 2780" preserveAspectRatio="xMidYMid meet">
<g id="layer101" fill="#000000" stroke="none">
 <path d="M0 1390 l0 -1390 1450 0 1450 0 0 1390 0 1390 -1450 0 -1450 0 0 -1390z"/>
 </g>
<g id="layer102" fill="#A9C9D7" stroke="none">
 <path d="M0 1390 l0 -1390 1450 0 1450 0 0 1390 0 1390 -1450 0 -1450 0 0 -1390z m2700 1200 c27 -27 25 -55 -6 -79 -25 -19 -40 -21 -190 -21 l-164 0 0 -660 c0 -647 0 -660 -20 -680 -20 -20 -33 -20 -873 -20 l-854 0 -19 21 c-18 20 -19 48 -21 678 l-3 656 -167 3 c-133 2 -170 6 -184 18 -26 24 -29 51 -7 79 l19 25 1235 0 c1221 0 1234 0 1254 -20z m-2424 -1342 c17 -13 136 -111 265 -220 307 -257 871 -730 890 -745 16 -13 15 -15 714 572 105 87 259 217 343 287 91 76 161 128 174 128 30 0 58 -28 58 -58 0 -28 -7 -35 -219 -212 l-161 -135 0 -242 c0 -230 -1 -244 -20 -263 -18 -18 -33 -20 -193 -20 -210 0 -210 0 -217 94 l-5 66 -175 -146 c-96 -81 -194 -162 -218 -182 -23 -19 -53 -34 -67 -34 -17 -1 -55 24 -113 74 -48 40 -213 179 -367 308 -679 568 -770 645 -777 655 -13 18 -9 58 9 77 21 24 43 23 79 -4z"/>
 <path d="M670 1870 l0 -620 775 0 775 0 0 620 0 620 -390 0 -390 0 0 -263 c0 -221 -2 -266 -16 -285 -15 -22 -17 -22 -298 -22 -251 0 -285 2 -297 17 -11 12 -15 75 -17 285 l-3 268 -70 0 -69 0 0 -620z m1364 -16 c13 -13 16 -43 16 -170 0 -88 -4 -164 -10 -175 -10 -18 -23 -19 -175 -19 -135 0 -166 3 -179 16 -13 13 -16 43 -16 174 0 131 3 161 16 174 23 24 325 24 348 0z"/>
 <path d="M1784 1747 c-3 -8 -4 -43 -2 -78 l3 -64 75 0 75 0 0 75 0 75 -73 3 c-55 2 -74 -1 -78 -11z"/>
 <path d="M930 2260 l0 -231 193 3 192 3 3 228 2 227 -195 0 -195 0 0 -230z"/>
 <path d="M2123 683 l-93 -77 0 -73 0 -73 95 0 95 0 0 150 c0 83 -1 150 -2 149 -2 0 -45 -34 -95 -76z"/>
 </g>

</svg>