<!DOCTYPE svg PUBLIC "-//W3C//DTD SVG 20010904//EN" "http://www.w3.org/TR/2001/REC-SVG-20010904/DTD/svg10.dtd">
<svg version="1.0" xmlns="http://www.w3.org/2000/svg" viewBox="0 0 2350 2300" preserveAspectRatio="xMidYMid meet">
<g id="layer101" fill="#000000" stroke="none">
 <path d="M0 1150 l0 -1150 1175 0 1175 0 0 1150 0 1150 -1175 0 -1175 0 0 -1150z"/>
 </g>
<g id="layer102" fill="#000000" stroke="none">
 <path d="M0 1150 l0 -1150 1175 0 1175 0 0 1150 0 1150 -1175 0 -1175 0 0 -1150z m379 774 c67 -161 78 -195 54 -181 -5 3 -36 74 -69 156 -32 83 -63 151 -69 151 -5 -1 -37 -69 -71 -153 -38 -97 -66 -153 -76 -155 -12 -2 4 45 60 177 41 100 80 181 86 181 6 0 44 -79 85 -176z m381 161 c0 -12 -18 -15 -105 -15 l-105 0 0 -165 c0 -140 -2 -165 -15 -165 -13 0 -15 26 -15 173 0 96 3 177 7 180 3 4 57 7 120 7 94 0 113 -3 113 -15z m303 0 c1 -6 -39 -11 -103 -13 l-105 -3 3 -69 4 -70 81 -1 c45 -1 86 -1 90 0 4 1 3 -8 -3 -20 -11 -19 -19 -21 -93 -18 l-82 4 -3 -67 -3 -68 106 0 c63 0 105 -4 105 -10 0 -6 -45 -10 -114 -10 l-113 0 -7 61 c-8 79 -8 193 0 253 l7 47 113 -3 c65 -2 115 -7 117 -13z m94 -45 l26 -60 88 0 87 0 18 51 c17 47 39 77 49 67 4 -4 -123 -321 -139 -347 -17 -26 -34 -5 -73 92 -23 56 -56 135 -73 176 -34 83 -34 81 -19 81 6 0 22 -27 36 -60z m363 -10 l0 -70 63 0 62 0 43 70 c24 39 47 70 53 70 16 0 10 -15 -32 -81 -30 -46 -38 -64 -28 -68 8 -2 26 -17 41 -32 44 -43 36 -119 -16 -161 -16 -14 -41 -18 -113 -18 l-93 0 0 180 c0 113 4 180 10 180 6 0 10 -30 10 -70z m340 -74 c0 -80 4 -147 9 -151 5 -3 62 61 126 142 64 82 122 148 128 148 9 0 13 -50 15 -177 2 -153 0 -178 -13 -178 -12 0 -15 25 -17 153 l-3 152 -120 -149 c-66 -82 -126 -151 -132 -154 -10 -3 -13 37 -13 177 0 114 4 181 10 181 6 0 10 -55 10 -144z m-9 -358 c-5 -13 -9 -27 -9 -33 -3 -28 -26 -112 -35 -122 -7 -10 -147 -13 -637 -13 l-627 0 -16 51 c-10 28 -17 60 -17 70 0 10 -4 21 -10 24 -5 3 -10 15 -10 26 0 19 14 19 685 19 l685 0 -9 -22z m301 -3 c-2 -11 -16 -32 -33 -47 -34 -32 -91 -38 -127 -12 -25 18 -54 68 -45 78 4 4 52 5 107 4 95 -3 101 -4 98 -23z m-617 -238 c28 -21 9 -37 -45 -37 -41 0 -53 -5 -79 -31 -44 -44 -72 -110 -77 -181 l-2 -37 231 -4 c128 -2 239 -5 247 -8 9 -2 30 -15 48 -28 62 -44 62 -44 62 -433 0 -223 -4 -368 -11 -393 -13 -48 -50 -90 -93 -105 -34 -12 -1259 -6 -1293 7 -10 3 -35 23 -55 44 l-38 37 0 376 c0 403 2 418 51 463 40 36 96 44 311 43 112 0 209 -1 216 0 9 0 12 12 9 40 -2 22 -6 42 -10 46 -3 3 -3 12 0 20 3 8 0 14 -7 14 -6 0 -8 5 -5 10 3 6 2 10 -4 10 -6 0 -7 7 -4 17 4 11 3 14 -5 9 -7 -4 -10 -2 -6 7 3 8 -11 27 -32 45 -29 25 -46 32 -81 32 -46 0 -70 23 -42 41 8 5 167 9 355 9 270 0 344 -3 359 -13z"/>
 <path d="M1190 1955 c0 -6 71 -179 75 -183 5 -6 32 50 59 122 l25 66 -79 0 c-44 0 -80 -2 -80 -5z"/>
 <path d="M1527 1933 c-4 -3 -7 -44 -7 -90 l0 -83 74 0 c81 0 118 18 130 65 9 36 -18 93 -49 105 -30 11 -138 14 -148 3z"/>
 <path d="M565 1572 c-7 -7 6 -57 16 -60 5 -2 9 -10 9 -18 0 -11 91 -14 582 -16 546 -3 581 -2 586 15 2 9 8 17 11 17 4 0 8 6 9 13 0 6 3 21 7 32 6 20 1 20 -605 20 -337 0 -613 -2 -615 -3z"/>
 <path d="M1970 1585 c0 -22 48 -49 86 -49 34 0 74 27 74 51 0 10 -20 13 -80 13 -64 0 -80 -3 -80 -15z"/>
 <path d="M996 1312 c-3 -5 3 -18 12 -28 10 -10 19 -23 20 -29 2 -5 12 -39 22 -74 11 -35 20 -74 20 -87 0 -24 1 -24 105 -24 93 0 105 2 106 18 0 9 2 26 5 37 2 11 6 38 9 60 3 21 9 42 13 45 4 3 8 12 10 20 2 8 12 24 23 36 10 11 19 23 19 27 0 10 -358 9 -364 -1z"/>
 <path d="M521 965 c-30 -35 -40 -76 -23 -102 6 -10 160 -13 680 -15 l672 -3 0 52 c0 45 -4 54 -31 77 l-31 26 -618 0 -618 0 -31 -35z m677 -36 c4 -19 -27 -34 -41 -20 -14 14 0 43 20 39 10 -2 19 -10 21 -19z"/>
 <path d="M519 790 c-21 -5 -22 -10 -20 -100 1 -52 6 -98 10 -103 4 -4 79 -6 167 -5 l159 3 0 105 0 105 -147 0 c-81 0 -157 -2 -169 -5z"/>
 <path d="M860 720 l0 -80 70 0 71 0 -3 78 -3 77 -67 3 -68 3 0 -81z"/>
 <path d="M1018 794 c-5 -4 -8 -78 -8 -165 0 -216 15 -203 -222 -209 l-183 -5 -6 -115 -5 -115 -2 93 -2 92 -27 0 c-67 0 -68 -3 -63 -91 5 -80 7 -83 53 -110 26 -15 687 -10 687 5 0 6 5 4 10 -4 8 -12 10 -12 10 5 1 18 1 19 11 2 9 -15 30 -17 199 -17 141 0 190 3 190 12 0 9 3 9 12 0 16 -16 75 -15 81 1 4 9 8 9 15 -1 13 -20 70 11 82 44 10 26 14 524 4 559 -5 18 -12 20 -92 18 -48 -2 -112 -2 -142 -2 -93 1 -283 0 -312 -1 -16 0 -28 -6 -28 -13 0 -8 -4 -7 -9 2 -7 11 -39 16 -128 19 -65 2 -121 1 -125 -4z m579 -61 c-4 -3 -7 0 -7 7 0 7 3 10 7 7 3 -4 3 -10 0 -14z m77 -417 c-4 -10 3 -16 23 -19 27 -4 27 -4 -4 -6 -31 -1 -44 15 -26 32 10 11 13 8 7 -7z m-427 -13 c-4 -3 -10 -3 -14 0 -3 4 0 7 7 7 7 0 10 -3 7 -7z m110 -10 c-4 -3 -10 -3 -14 0 -3 4 0 7 7 7 7 0 10 -3 7 -7z m-69 -11 c6 6 12 6 17 -3 5 -7 4 -10 -3 -5 -6 3 -13 2 -17 -3 -3 -6 -12 -8 -20 -4 -8 3 -15 0 -15 -6 0 -6 -4 -11 -8 -11 -4 0 -8 9 -8 19 0 15 4 17 22 11 13 -5 26 -4 32 2z m-101 -29 c-4 -3 -10 -3 -14 0 -3 4 0 7 7 7 7 0 10 -3 7 -7z m560 -20 c-4 -3 -7 0 -7 7 0 7 3 10 7 7 3 -4 3 -10 0 -14z m-140 -10 c-4 -3 -7 0 -7 7 0 7 3 10 7 7 3 -4 3 -10 0 -14z m44 -6 c-10 -9 -11 -8 -5 6 3 10 9 15 12 12 3 -3 0 -11 -7 -18z m76 6 c-4 -3 -7 0 -7 7 0 7 3 10 7 7 3 -4 3 -10 0 -14z m-482 -13 c3 -5 4 -10 1 -10 -3 0 -8 5 -11 10 -3 6 -4 10 -1 10 3 0 8 -4 11 -10z"/>
 <path d="M860 596 c0 -19 -6 -25 -27 -28 -27 -3 -28 -5 -28 -68 l0 -65 59 -3 c70 -4 114 12 127 45 5 13 9 51 9 84 l0 59 -70 0 c-67 0 -70 -1 -70 -24z"/>
 <path d="M497 483 c-4 -48 -5 -88 -4 -89 1 -1 22 -4 47 -5 40 -3 45 -1 48 18 2 14 12 23 25 25 20 3 22 10 25 71 l3 67 -69 0 -69 0 -6 -87z"/>
 <path d="M654 556 c-3 -7 -4 -38 -2 -67 l3 -54 68 -3 67 -3 0 71 0 70 -65 0 c-46 0 -67 -4 -71 -14z"/>
 </g>
<g id="layer103" fill="#FFFFFF" stroke="none">
 <path d="M0 1150 l0 -1150 1175 0 1175 0 0 1150 0 1150 -1175 0 -1175 0 0 -1150z m387 770 c40 -96 73 -179 73 -183 0 -5 -8 -7 -17 -5 -12 2 -37 50 -79 153 -34 83 -65 149 -69 148 -5 -1 -35 -68 -68 -148 -55 -134 -77 -169 -94 -151 -3 3 16 59 42 123 89 217 103 245 122 241 11 -2 41 -61 90 -178z m383 165 c0 -12 -18 -15 -105 -15 l-105 0 -2 -167 c-3 -151 -5 -168 -20 -171 -17 -3 -18 11 -18 182 l0 186 125 0 c104 0 125 -2 125 -15z m300 0 c0 -12 -18 -15 -105 -15 l-105 0 0 -70 0 -70 90 0 c73 0 90 -3 90 -15 0 -21 -42 -29 -116 -22 l-64 6 0 -69 0 -70 105 0 c87 0 105 -3 105 -15 0 -13 -21 -15 -125 -15 l-125 0 0 185 0 185 125 0 c104 0 125 -2 125 -15z m95 -42 l20 -53 85 0 85 0 20 53 c15 39 26 53 42 55 19 3 22 0 15 -15 -88 -222 -149 -353 -163 -353 -14 0 -77 138 -168 363 -2 5 7 7 20 5 18 -2 28 -16 44 -55z m367 -10 l3 -68 50 0 50 0 43 65 c24 36 52 66 63 68 27 5 24 -5 -21 -73 -44 -66 -47 -75 -26 -75 20 0 53 -44 61 -82 9 -40 -18 -99 -55 -121 -21 -13 -52 -17 -119 -17 l-91 0 0 185 c0 177 1 185 20 185 17 0 19 -8 22 -67z m340 -80 l3 -147 115 146 c68 88 122 147 133 148 16 0 17 -15 17 -186 0 -171 -1 -185 -17 -182 -16 3 -18 18 -18 146 0 78 -3 142 -6 142 -3 0 -58 -65 -123 -145 -64 -80 -123 -145 -131 -145 -13 0 -15 30 -15 185 0 177 1 185 20 185 18 0 20 -8 22 -147z m-23 -332 c11 -7 11 -16 -2 -57 -9 -27 -21 -68 -27 -92 l-11 -42 -637 2 -637 3 -15 67 c-8 36 -19 70 -23 74 -17 17 -6 43 21 47 55 8 1317 6 1331 -2z m311 -22 c0 -26 -49 -76 -84 -85 -14 -3 -38 -3 -52 0 -35 9 -84 59 -84 85 0 20 5 21 110 21 105 0 110 -1 110 -21z m-620 -244 c18 -22 4 -33 -51 -38 -25 -3 -55 -10 -67 -16 -29 -15 -81 -127 -84 -181 l-3 -45 242 -5 c269 -6 270 -6 321 -80 l23 -34 -3 -382 c-3 -368 -4 -384 -24 -410 -11 -15 -33 -37 -48 -48 -27 -21 -39 -21 -649 -24 -415 -2 -634 0 -658 8 -22 6 -54 29 -79 56 -40 44 -42 49 -36 91 3 25 6 198 6 384 l0 339 35 39 c49 54 86 61 340 61 l217 0 -7 43 c-4 23 -14 58 -22 77 -8 19 -16 41 -17 49 -1 7 -17 28 -36 47 -28 29 -39 34 -81 34 -29 0 -49 5 -52 13 -12 36 -4 37 363 37 310 0 359 -2 370 -15z"/>
 <path d="M1200 1953 c0 -16 63 -163 70 -163 6 0 32 61 66 153 5 15 -1 17 -65 17 -39 0 -71 -3 -71 -7z"/>
 <path d="M1530 1845 l0 -85 66 0 c59 0 68 3 95 29 37 38 39 82 4 116 -21 22 -33 25 -95 25 l-70 0 0 -85z"/>
 <path d="M565 1572 c-3 -3 4 -27 21 -74 6 -17 43 -18 588 -18 l582 0 12 33 c7 18 12 39 12 45 0 9 -153 12 -606 14 -333 2 -607 2 -609 0z"/>
 <path d="M1970 1591 c0 -18 53 -51 80 -51 27 0 80 33 80 51 0 5 -36 9 -80 9 -44 0 -80 -4 -80 -9z"/>
 <path d="M1000 1316 c0 -2 12 -26 26 -54 14 -27 30 -81 37 -121 l11 -71 101 0 101 0 12 77 c7 43 23 96 37 121 14 25 25 46 25 47 0 2 -79 4 -175 5 -96 0 -175 -1 -175 -4z"/>
 <path d="M560 993 c-40 -15 -60 -46 -60 -95 l0 -48 675 0 675 0 0 49 c0 43 -4 53 -31 75 l-31 26 -606 -1 c-334 0 -614 -3 -622 -6z m628 -42 c19 -12 11 -45 -12 -49 -24 -5 -37 17 -25 40 11 20 18 22 37 9z"/>
 <path d="M1680 791 c0 -3 10 -15 21 -28 18 -19 20 -25 9 -38 -9 -11 -16 -12 -25 -5 -6 5 -15 7 -18 3 -4 -3 -7 -1 -7 6 0 8 8 11 20 8 25 -6 25 1 1 31 -24 27 -29 27 -57 1 -16 -15 -21 -27 -15 -38 5 -9 5 -25 1 -36 -8 -21 -8 -20 -23 25 -3 8 -6 -11 -6 -43 -1 -73 -29 -107 -88 -108 -32 0 -34 -2 -17 -9 29 -12 54 -49 54 -80 0 -56 -72 -96 -120 -68 -25 14 -28 14 -39 -3 -9 -16 -8 -19 9 -19 27 0 27 -40 0 -47 -16 -4 -18 -8 -9 -20 10 -11 9 -18 -6 -31 -13 -13 -19 -14 -22 -4 -3 6 -9 12 -15 12 -6 0 -7 -7 -4 -15 4 -11 -3 -17 -24 -22 -17 -3 -30 -10 -30 -15 0 -5 4 -7 9 -4 10 7 23 -19 14 -28 -4 -3 -8 -17 -9 -31 l-3 -25 188 0 c203 0 201 -1 177 53 -5 9 -3 30 3 45 6 15 9 36 8 47 -2 16 5 21 31 23 29 3 32 1 32 -23 0 -15 7 -33 15 -41 8 -9 15 -19 15 -23 0 -19 -43 -61 -63 -61 -15 0 -18 -3 -10 -11 16 -16 65 -7 77 15 6 11 18 28 27 38 14 16 17 36 10 70 0 4 -10 10 -21 13 -11 4 -32 17 -45 31 -25 25 -50 31 -60 14 -3 -5 -17 -10 -31 -10 -14 0 -27 -6 -30 -14 -3 -8 -14 -16 -25 -19 -16 -4 -20 -12 -17 -34 2 -15 9 -29 16 -29 6 -1 17 -2 22 -3 6 0 10 -10 10 -22 0 -12 8 -23 20 -26 11 -3 17 -9 14 -14 -8 -13 -42 8 -49 31 -3 11 -12 20 -19 20 -26 0 -41 29 -29 59 8 22 7 30 -5 38 -21 12 -8 46 15 41 11 -2 18 -12 17 -26 -1 -22 -1 -22 20 -3 12 11 43 23 72 26 47 7 52 5 72 -19 11 -15 30 -28 41 -29 12 -1 21 -7 21 -14 0 -7 3 -13 8 -13 16 0 4 -62 -16 -83 -20 -22 -29 -47 -17 -47 16 0 63 31 69 45 3 9 6 144 6 300 l0 284 -85 3 c-47 2 -85 1 -85 -1z m-13 -108 c-8 -9 -20 -12 -26 -9 -19 12 -12 21 15 23 24 1 25 -1 11 -14z m89 -15 c4 -5 1 -15 -5 -21 -8 -8 -15 -6 -26 9 -8 10 -15 22 -15 26 0 9 39 -3 46 -14z m-122 -124 c9 -24 7 -34 -8 -34 -8 0 -13 10 -13 25 0 28 12 33 21 9z m-100 -165 c-8 -14 -34 -11 -34 4 0 8 3 17 7 20 9 9 34 -13 27 -24z"/>
 <path d="M500 690 l0 -100 165 0 165 0 0 100 0 100 -165 0 -165 0 0 -100z"/>
 <path d="M860 715 l0 -75 65 0 65 0 0 75 0 75 -65 0 -65 0 0 -75z"/>
 <path d="M1020 640 c0 -166 -9 -203 -56 -220 -14 -6 -99 -10 -190 -10 l-164 0 0 -110 c0 -91 -3 -110 -15 -110 -12 0 -15 16 -15 85 l0 85 -40 0 -40 0 0 -74 c0 -80 9 -99 57 -117 34 -13 610 -12 618 1 3 6 2 10 -4 10 -13 0 -8 73 6 77 6 2 14 -1 18 -6 3 -6 1 -11 -4 -11 -11 0 -10 -22 3 -51 13 -29 55 -16 68 21 5 15 -13 40 -29 40 -5 0 -18 7 -29 15 -18 13 -17 14 11 9 28 -5 28 -4 12 14 -20 22 -22 42 -4 43 6 0 2 4 -10 9 -29 12 -31 50 -3 50 11 0 20 5 20 10 0 6 -4 10 -9 10 -5 0 -11 7 -15 15 -3 8 -2 14 2 13 4 -1 18 4 31 11 14 8 21 9 17 2 -4 -6 -2 -11 5 -11 6 0 9 8 7 18 -4 15 0 17 23 14 16 -2 29 -10 29 -16 0 -7 13 -13 28 -13 26 0 27 3 24 34 -5 37 26 82 57 84 9 1 -6 5 -34 10 -72 12 -85 32 -85 135 0 69 -3 84 -16 84 -8 0 -13 -4 -9 -9 3 -5 1 -12 -5 -16 -6 -3 -13 1 -16 9 -5 13 -26 16 -125 16 l-119 0 0 -150z m190 56 c0 -8 -4 -17 -9 -21 -6 -3 -9 4 -8 15 1 23 17 28 17 6z m17 -23 c-4 -3 -7 0 -7 7 0 7 3 10 7 7 3 -4 3 -10 0 -14z m63 -64 c0 -5 -7 -9 -15 -9 -15 0 -20 12 -9 23 8 8 24 -1 24 -14z m-64 -20 c10 -17 -13 -36 -27 -22 -12 12 -4 33 11 33 5 0 12 -5 16 -11z m24 -379 c0 -13 -33 -21 -43 -11 -16 16 12 44 29 30 8 -6 14 -15 14 -19z"/>
 <path d="M1215 210 c-3 -5 -1 -10 4 -10 6 0 11 5 11 10 0 6 -2 10 -4 10 -3 0 -8 -4 -11 -10z"/>
 <path d="M1330 702 c0 -55 4 -92 12 -100 16 -16 190 -16 206 0 8 8 12 45 12 100 0 81 -2 88 -20 88 -16 0 -20 -8 -23 -62 l-3 -63 -2 63 -2 62 -65 0 -64 0 -4 -62 -3 -63 -2 63 c-2 55 -4 62 -22 62 -18 0 -20 -7 -20 -88z"/>
 <path d="M1580 768 c0 -20 1 -21 20 -3 11 10 20 20 20 22 0 1 -9 3 -20 3 -14 0 -20 -7 -20 -22z"/>
 <path d="M860 585 c0 -20 -5 -25 -25 -25 -24 0 -25 -3 -25 -60 l0 -60 70 0 c94 0 110 15 110 105 l0 65 -65 0 c-63 0 -65 -1 -65 -25z"/>
 <path d="M500 475 l0 -85 40 0 c36 0 40 3 40 25 0 20 5 25 25 25 24 0 25 3 25 60 l0 60 -65 0 -65 0 0 -85z"/>
 <path d="M660 500 l0 -60 60 0 60 0 0 60 0 60 -60 0 -60 0 0 -60z"/>
 <path d="M1401 524 c-25 -32 -26 -52 -5 -82 15 -22 66 -30 90 -14 23 15 34 50 24 76 -19 50 -77 61 -109 20z"/>
 <path d="M1287 440 c-5 -18 -11 -22 -31 -18 -21 4 -24 3 -15 -8 13 -16 4 -34 -17 -34 -8 0 -14 -4 -14 -10 0 -5 6 -10 14 -10 22 0 29 -19 14 -37 -12 -15 -10 -16 14 -10 20 5 29 3 36 -9 6 -11 11 -13 16 -5 4 6 4 11 -1 11 -4 0 -1 5 7 10 10 6 20 4 31 -5 14 -13 15 -12 11 15 -3 23 0 30 12 30 9 0 16 5 16 10 0 6 -7 10 -16 10 -12 0 -15 6 -10 25 6 23 4 25 -19 19 -20 -5 -27 -2 -33 17 l-9 23 -6 -24z m41 -64 c5 -22 -7 -35 -36 -41 -24 -4 -24 -4 -27 38 -2 26 1 28 29 25 21 -2 32 -9 34 -22z"/>
 <path d="M1280 371 c0 -12 6 -18 15 -17 9 1 15 5 15 9 0 4 0 12 0 17 0 6 -7 10 -15 10 -8 0 -15 -9 -15 -19z"/>
 <path d="M1546 351 c-4 -5 -2 -12 3 -15 5 -4 12 -2 15 3 4 5 2 12 -3 15 -5 4 -12 2 -15 -3z"/>
 <path d="M1683 303 c4 -3 10 -3 14 0 3 4 0 7 -7 7 -7 0 -10 -3 -7 -7z"/>
 <path d="M1255 290 c-3 -5 -1 -10 4 -10 6 0 11 5 11 10 0 6 -2 10 -4 10 -3 0 -8 -4 -11 -10z"/>
 <path d="M1700 268 c0 -10 -4 -18 -10 -18 -5 0 -10 5 -10 12 0 9 -3 9 -11 1 -6 -6 -9 -21 -7 -34 2 -18 10 -25 31 -27 24 -3 27 0 27 25 0 15 -5 35 -10 43 -8 13 -10 12 -10 -2z"/>
 </g>

</svg>