<?xml version="1.0" standalone="no"?>
<!DOCTYPE svg PUBLIC "-//W3C//DTD SVG 20010904//EN"
 "http://www.w3.org/TR/2001/REC-SVG-20010904/DTD/svg10.dtd">
<svg version="1.0" xmlns="http://www.w3.org/2000/svg"
 width="50px" height="50px" viewBox="0 0 275.000000 273.000000"
 preserveAspectRatio="xMidYMid meet">
<metadata>
Created by potrace 1.16, written by Peter Selinger 2001-2019
</metadata>
<g transform="translate(0.000000,273.000000) scale(0.100000,-0.100000)"
fill="#046307" stroke="none">
<path d="M1125 2714 c-558 -100 -995 -535 -1106 -1099 -9 -45 -14 -137 -14
-260 1 -171 3 -200 27 -295 77 -305 227 -552 452 -739 150 -125 284 -200 456
-255 162 -52 226 -61 425 -61 193 0 269 11 421 61 377 123 700 428 843 797 73
190 86 264 86 502 0 187 -3 220 -24 305 -25 103 -89 280 -101 280 -4 0 -54
-51 -112 -112 l-105 -113 13 -39 c49 -140 60 -373 26 -536 -46 -219 -134 -382
-297 -545 -164 -164 -321 -249 -542 -294 -347 -71 -704 35 -958 284 -216 212
-325 472 -325 777 0 591 479 1070 1070 1070 222 0 437 -68 620 -196 l65 -46
98 98 c53 53 97 101 97 107 -1 15 -114 97 -215 154 -142 81 -291 133 -465 160
-92 15 -340 12 -435 -5z"/>
<path d="M2535 2492 c-16 -11 -358 -349 -758 -752 l-728 -734 -128 128 c-121
121 -131 128 -175 133 -79 9 -148 -38 -162 -112 -12 -63 9 -92 204 -292 161
-165 192 -193 224 -199 91 -16 45 -57 911 812 441 443 807 815 814 827 18 32
16 98 -5 136 -35 65 -133 91 -197 53z"/>
</g>
</svg>
