<?xml version="1.0" encoding="UTF-8" standalone="no"?>
<svg
   xmlns:dc="http://purl.org/dc/elements/1.1/"
   xmlns:cc="http://creativecommons.org/ns#"
   xmlns:rdf="http://www.w3.org/1999/02/22-rdf-syntax-ns#"
   xmlns:svg="http://www.w3.org/2000/svg"
   xmlns="http://www.w3.org/2000/svg"
   xmlns:sodipodi="http://sodipodi.sourceforge.net/DTD/sodipodi-0.dtd"
   xmlns:inkscape="http://www.inkscape.org/namespaces/inkscape"
   version="1.1"
   id="svg2"
   xml:space="preserve"
   width="50px"
   height="50px"
   viewBox="0 0 457.65332 226.14667"
   sodipodi:docname="Basic_Ui_(109).eps"><metadata
     id="metadata8"><rdf:RDF><cc:Work
         rdf:about=""><dc:format>image/svg+xml</dc:format><dc:type
           rdf:resource="http://purl.org/dc/dcmitype/StillImage" /></cc:Work></rdf:RDF></metadata><defs
     id="defs6" /><sodipodi:namedview
     pagecolor="#ffffff"
     bordercolor="#666666"
     borderopacity="1"
     objecttolerance="10"
     gridtolerance="10"
     guidetolerance="10"
     inkscape:pageopacity="0"
     inkscape:pageshadow="2"
     inkscape:window-width="640"
     inkscape:window-height="480"
     id="namedview4" /><g
     id="g10"
     inkscape:groupmode="layer"
     inkscape:label="ink_ext_XXXXXX"
     transform="matrix(1.3333333,0,0,-1.3333333,0,226.14667)"><g
       id="g12"
       transform="scale(0.1)"><path
         d="m 2923.03,1344.96 c -353.85,234.07 -780.14,351.1 -1206.82,351.1 -426.68,0 -852.972,-117.03 -1206.823,-351.1 C 313.328,1215.28 139.434,1049.63 0,848.027 139.434,646.426 313.328,480.77 509.379,351.094 863.238,117.031 1289.53,0 1716.21,0 c 426.68,0 852.97,117.031 1206.82,351.094 196.05,129.676 369.94,295.332 509.39,496.933 -139.44,201.603 -313.34,367.253 -509.39,496.933 z M 1080.57,848.027 c 0,175.523 71.15,334.433 186.18,449.463 115.02,115.03 273.93,186.17 449.46,186.17 175.52,0 334.43,-71.14 449.46,-186.17 115.03,-115.03 186.17,-273.94 186.17,-449.463 0,-175.527 -71.14,-334.433 -186.17,-449.464 -115.03,-115.028 -273.94,-186.172 -449.46,-186.172 -175.53,0 -334.44,71.144 -449.46,186.172 -115.03,115.031 -186.18,273.937 -186.18,449.464"
         style="fill:#000000;fill-opacity:1;fill-rule:evenodd;stroke:none"
         id="path14" /><path
         d="m 2061.81,848.027 c 0,95.442 -38.69,181.853 -101.22,244.383 -62.54,62.53 -148.95,101.22 -244.38,101.22 -95.44,0 -181.85,-38.69 -244.39,-101.22 -62.53,-62.53 -101.21,-148.941 -101.21,-244.383 0,-95.437 38.68,-181.843 101.21,-244.375 62.54,-62.539 148.95,-101.218 244.39,-101.218 95.43,0 181.84,38.679 244.38,101.218 62.53,62.532 101.22,148.938 101.22,244.375"
         style="fill:#000000;fill-opacity:1;fill-rule:evenodd;stroke:none"
         id="path16" /></g></g></svg>
